<?xml version="1.0" encoding="UTF-8"?>
<svg id="Capa_2" xmlns="http://www.w3.org/2000/svg" version="1.1" viewBox="0 0 1920 1080">
  <!-- Generator: Adobe Illustrator 29.0.0, SVG Export Plug-In . SVG Version: 2.1.0 Build 186)  -->
  <defs>
    <style>
      .st0 {
        fill: #7a3b8a;
        stroke: #bc2eff;
        stroke-miterlimit: 10;
      }
    </style>
  </defs>
  <polygon class="st0" points="735.73 395.44 735.73 687.41 786.47 687.41 786.47 564.3 901.54 563.08 901.54 521.04 784.81 517.08 784.54 444.08 901.54 445.35 901.54 395.44 735.73 395.44"/>
  <path d="M921.04,395.58v50.6s15.7.63,25.77,12.76c1.29,1.55,10.31,12.57,8.23,27.64-1.46,10.61-7.6,17.29-11,21-8.47,9.23-18.38,12.7-23,14v42.72c2.74.38,20.35,3.08,29.31,18.22,1.57,2.65,5.9,10.22,4.69,20.06-1.2,9.74-7.14,15.99-10,19-9.58,10.07-24,15.09-24,15.09l-114-.09v50.83l126,.17c6.76,1,24.41,2.59,40-8,13.64-9.27,19.11-23.39,24-36,1.38-3.56,4.37-11.88,6-23,1.62-11.03,1.14-19.55.97-22.07-.41-6.07-2.36-16.81-6.97-30.05-9-25.88-32.56-27.88-32.56-27.88,7.58-1.73,21.7-6.3,30.56-19,5.23-7.49,6.69-15.03,9-27,1.36-7.06,3.17-16.75,2.14-29.04-.81-9.65-2.06-24.65-12.14-37.96-9.81-12.96-23.06-17.81-40-24-13.28-4.86-24.9-6.98-33-8Z"/>
</svg>